# xmcd CD database file
#
# Track frame offsets:
#	150
#	21635
#	39374
#	60762
#	79079
#	102765
#	127616
#	140933
#	166577
#	184354
#	198049
#	212634
#	225114
#	237324
#	249551
#	262462
#	274098
#	286379
#	300803
#	310722
#	322324
#	332273
#	347081
#
# Disc length: 4793 seconds
#
# Revision: 0
# Processed by: cddbd v1.5.2PL0 Copyright (c) Steve Scherf et al.
# Submitted via: CDex 1.79
#
DISCID=3c12b717
DTITLE=Eddie Lockjaw Davis - Count Basie Presents Goodies From Eddie Davis Modern Jazz Expressions
DYEAR=2013
DGENRE=Jazz
TTITLE0=Broadway
TTITLE1=Don't Blame Me
TTITLE2=A Misty One
TTITLE3=Save Your Love For Me
TTITLE4=Telegraph
TTITLE5=Farouk
TTITLE6=Street of Dreams
TTITLE7=Swingin' Till The Girls Come Home
TTITLE8=Marie
TTITLE9=Lock-Up
TTITLE10=I Only Have Eyes For You
TTITLE11=Chihuahua
TTITLE12=Secret Love
TTITLE13=Nightingale
TTITLE14=Bewitched
TTITLE15=My Blue Heaven
TTITLE16=Blues In My Heart
TTITLE17=Hey Lock
TTITLE18=Dizzy Atmosphere
TTITLE19=It's The Talk Of The Town
TTITLE20=Johnny Come Lately
TTITLE21=You Go To My Head
TTITLE22=Bean-O
EXTD=YEAR: 2013
EXTT0=
EXTT1=
EXTT2=
EXTT3=
EXTT4=
EXTT5=
EXTT6=
EXTT7=
EXTT8=
EXTT9=
EXTT10=
EXTT11=
EXTT12=
EXTT13=
EXTT14=
EXTT15=
EXTT16=
EXTT17=
EXTT18=
EXTT19=
EXTT20=
EXTT21=
EXTT22=
PLAYORDER=
